<svg xmlns="http://www.w3.org/2000/svg" width="132.669" height="117.928" viewBox="0 0 132.669 117.928">
  <path id="Icon_awesome-shopping-cart" data-name="Icon awesome-shopping-cart" d="M121.641,69.4l10.888-47.908a5.528,5.528,0,0,0-5.39-6.753H36.67L34.559,4.42A5.528,5.528,0,0,0,29.143,0H5.528A5.528,5.528,0,0,0,0,5.528V9.213a5.528,5.528,0,0,0,5.528,5.528h16.1l16.18,79.1a12.9,12.9,0,1,0,15.442,1.973h48.287a12.9,12.9,0,1,0,14.648-2.4l1.271-5.591a5.528,5.528,0,0,0-5.39-6.753H50.238L48.731,73.7H116.25A5.528,5.528,0,0,0,121.641,69.4Z" fill="#fff"/>
</svg>
