<svg xmlns="http://www.w3.org/2000/svg" width="156.772" height="156.772" viewBox="0 0 156.772 156.772">
  <path id="Icon_awesome-facebook-square" data-name="Icon awesome-facebook-square" d="M139.975,2.25H16.8A16.8,16.8,0,0,0,0,19.047V142.225a16.8,16.8,0,0,0,16.8,16.8H64.826v-53.3H42.78V80.636H64.826V61.515c0-21.749,12.948-33.762,32.779-33.762a133.559,133.559,0,0,1,19.429,1.694V50.793H106.091c-10.782,0-14.144,6.691-14.144,13.553v16.29h24.069l-3.849,25.087H91.946v53.3h48.029a16.8,16.8,0,0,0,16.8-16.8V19.047A16.8,16.8,0,0,0,139.975,2.25Z" transform="translate(0 -2.25)" fill="#fff"/>
</svg>
