<svg xmlns="http://www.w3.org/2000/svg" width="269.098" height="269.038" viewBox="0 0 269.098 269.038">
  <path id="Icon_awesome-instagram" data-name="Icon awesome-instagram" d="M134.574,67.779a68.978,68.978,0,1,0,68.978,68.978A68.869,68.869,0,0,0,134.574,67.779Zm0,113.823a44.845,44.845,0,1,1,44.845-44.845A44.926,44.926,0,0,1,134.574,181.6ZM222.462,64.957a16.089,16.089,0,1,1-16.089-16.089A16.051,16.051,0,0,1,222.462,64.957Zm45.685,16.329c-1.021-21.552-5.943-40.642-21.732-56.371C230.687,9.187,211.6,4.264,190.044,3.183c-22.212-1.261-88.789-1.261-111,0C57.551,4.2,38.461,9.126,22.672,24.855S2.021,59.674.94,81.226c-1.261,22.212-1.261,88.789,0,111,1.021,21.552,5.943,40.642,21.732,56.371s34.819,20.651,56.371,21.732c22.212,1.261,88.789,1.261,111,0,21.552-1.021,40.642-5.943,56.371-21.732,15.729-15.729,20.651-34.819,21.732-56.371,1.261-22.212,1.261-88.729,0-110.941Zm-28.7,134.774a45.4,45.4,0,0,1-25.574,25.574c-17.71,7.024-59.733,5.4-79.3,5.4s-61.654,1.561-79.3-5.4A45.4,45.4,0,0,1,29.7,216.06c-7.024-17.71-5.4-59.733-5.4-79.3s-1.561-61.654,5.4-79.3A45.4,45.4,0,0,1,55.27,31.879c17.71-7.024,59.733-5.4,79.3-5.4s61.654-1.561,79.3,5.4a45.4,45.4,0,0,1,25.574,25.574c7.024,17.71,5.4,59.733,5.4,79.3S246.475,198.411,239.451,216.06Z" transform="translate(0.005 -2.238)" fill="#fff"/>
</svg>
