<svg xmlns="http://www.w3.org/2000/svg" width="206.706" height="183.746" viewBox="0 0 206.706 183.746">
  <path id="Icon_awesome-piggy-bank" data-name="Icon awesome-piggy-bank" d="M200.966,80.389H190.379a57.6,57.6,0,0,0-13.422-18.841l6.783-27.1H172.256a34.235,34.235,0,0,0-26.2,12.31,56.918,56.918,0,0,0-8.254-.825H91.867A57.476,57.476,0,0,0,35.594,91.873h-15.5a8.622,8.622,0,0,1-8.434-10.336,8.84,8.84,0,0,1,8.793-6.89h.359a2.16,2.16,0,0,0,2.153-2.153V65.316a2.16,2.16,0,0,0-2.153-2.153C10.58,63.163,1.465,70.484.173,80.6a20.112,20.112,0,0,0,19.918,22.753H34.446a57.189,57.189,0,0,0,22.968,45.685V178a5.759,5.759,0,0,0,5.742,5.742H86.125A5.759,5.759,0,0,0,91.867,178V160.778H137.8V178a5.759,5.759,0,0,0,5.742,5.742h22.968A5.759,5.759,0,0,0,172.256,178V149.043a57.428,57.428,0,0,0,11.233-11.233h17.477a5.759,5.759,0,0,0,5.742-5.742V86.131A5.759,5.759,0,0,0,200.966,80.389Zm-45.937,22.968a5.742,5.742,0,1,1,5.742-5.742A5.759,5.759,0,0,1,155.029,103.357Zm-63.163-68.9H137.8c1.938,0,3.84.144,5.706.287,0-.108.036-.179.036-.287a34.452,34.452,0,1,0-68.9,0c0,.754.179,1.471.215,2.225A68.22,68.22,0,0,1,91.867,34.452Z" transform="translate(-0.002)" fill="#fff"/>
</svg>
