<svg xmlns="http://www.w3.org/2000/svg" width="109.478" height="109.478" viewBox="0 0 109.478 109.478">
  <path id="Icon_awesome-phone-alt" data-name="Icon awesome-phone-alt" d="M106.355,77.362,82.407,67.1a5.132,5.132,0,0,0-5.987,1.475L65.814,81.531A79.257,79.257,0,0,1,27.926,43.643L40.884,33.037a5.119,5.119,0,0,0,1.475-5.987L32.1,3.1A5.166,5.166,0,0,0,26.215.13L3.977,5.261a5.132,5.132,0,0,0-3.977,5,99.2,99.2,0,0,0,99.215,99.215,5.132,5.132,0,0,0,5-3.977l5.132-22.238A5.194,5.194,0,0,0,106.355,77.362Z" transform="translate(0 0)" fill="#fff"/>
</svg>
