<svg xmlns="http://www.w3.org/2000/svg" width="148.359" height="148.359" viewBox="0 0 148.359 148.359">
  <path id="Icon_awesome-plus" data-name="Icon awesome-plus" d="M137.762,60.534H90.075V12.847a10.6,10.6,0,0,0-10.6-10.6h-10.6a10.6,10.6,0,0,0-10.6,10.6V60.534H10.6A10.6,10.6,0,0,0,0,71.131v10.6a10.6,10.6,0,0,0,10.6,10.6H58.284v47.687a10.6,10.6,0,0,0,10.6,10.6h10.6a10.6,10.6,0,0,0,10.6-10.6V92.325h47.687a10.6,10.6,0,0,0,10.6-10.6v-10.6A10.6,10.6,0,0,0,137.762,60.534Z" transform="translate(0 -2.25)" fill="#fff"/>
</svg>
