<svg xmlns="http://www.w3.org/2000/svg" width="153.503" height="107.452" viewBox="0 0 153.503 107.452">
  <path id="Icon_awesome-truck-moving" data-name="Icon awesome-truck-moving" d="M149.018,51.491,134.987,37.46a15.356,15.356,0,0,0-10.865-4.485h-8.994V9.925a7.667,7.667,0,0,0-7.675-7.675H7.675A7.667,7.667,0,0,0,0,9.925V90.514a19.14,19.14,0,0,0,34.538,11.417A19.14,19.14,0,0,0,69.076,90.514a20.214,20.214,0,0,0-.384-3.838h39.143a18.434,18.434,0,0,0-.384,3.838,19.188,19.188,0,1,0,38.376,0,20.214,20.214,0,0,0-.384-3.838h4.221a3.849,3.849,0,0,0,3.838-3.838V62.332A15.3,15.3,0,0,0,149.018,51.491ZM19.188,98.19a7.675,7.675,0,1,1,7.675-7.675A7.7,7.7,0,0,1,19.188,98.19Zm30.7,0a7.675,7.675,0,1,1,7.675-7.675A7.7,7.7,0,0,1,49.889,98.19Zm65.239-53.726h8.994a3.81,3.81,0,0,1,2.71,1.127l10.385,10.385h-22.09ZM126.64,98.19a7.675,7.675,0,1,1,7.675-7.675A7.7,7.7,0,0,1,126.64,98.19Z" transform="translate(0 -2.25)" fill="#fff"/>
</svg>
