<svg xmlns="http://www.w3.org/2000/svg" width="337.71" height="237.452" viewBox="0 0 337.71 237.452">
  <path id="Icon_awesome-youtube" data-name="Icon awesome-youtube" d="M331.7,41.653A42.433,42.433,0,0,0,301.846,11.6C275.51,4.5,169.9,4.5,169.9,4.5S64.3,4.5,37.964,11.6A42.435,42.435,0,0,0,8.107,41.653C1.05,68.161,1.05,123.466,1.05,123.466s0,55.305,7.057,81.813a41.8,41.8,0,0,0,29.857,29.571c26.337,7.1,131.941,7.1,131.941,7.1s105.6,0,131.941-7.1A41.8,41.8,0,0,0,331.7,205.279c7.057-26.507,7.057-81.813,7.057-81.813s0-55.305-7.057-81.813ZM135.366,173.679V73.253l88.265,50.214-88.265,50.212Z" transform="translate(-1.05 -4.5)" fill="#fff"/>
</svg>
